<svg width="20" height="22" viewBox="0 0 20 22" fill="none" xmlns="http://www.w3.org/2000/svg">
<g clip-path="url(#clip0_235_1021)">
<path d="M10 0.390381C4.4775 0.390381 0 5.04575 0 10.7876C0 16.5295 4.4775 21.1849 10 21.1849C15.5225 21.1849 20 16.5295 20 10.7876C20 5.04575 15.5225 0.390381 10 0.390381ZM10 2.9897C13.2544 2.9897 16.0031 5.16922 17.0413 8.18833H2.95875C3.99688 5.16922 6.74563 2.9897 10 2.9897ZM10 12.0873C9.30937 12.0873 8.75 11.5057 8.75 10.7876C8.75 10.0696 9.30937 9.48798 10 9.48798C10.6906 9.48798 11.25 10.0696 11.25 10.7876C11.25 11.5057 10.6906 12.0873 10 12.0873ZM2.5 10.7876C5.91563 10.7876 8.68188 14.2096 8.74 18.4537C5.205 17.824 2.5 14.6385 2.5 10.7876ZM11.26 18.4537C11.3181 14.2096 14.0844 10.7876 17.5 10.7876C17.5 14.6385 14.795 17.824 11.26 18.4537Z" fill="black"/>
</g>
<defs>
<clipPath id="clip0_235_1021">
<rect width="20" height="20.7945" fill="white" transform="translate(0 0.390381)"/>
</clipPath>
</defs>
</svg>
