<svg width="24" height="22" viewBox="0 0 24 22" fill="none" xmlns="http://www.w3.org/2000/svg">
<path d="M14.8766 1.67251C14.5876 1.16461 14.1692 0.742296 13.6641 0.448525C13.1589 0.154754 12.585 0 12.0006 0C11.4162 0 10.8423 0.154754 10.3371 0.448525C9.83196 0.742296 9.41361 1.16461 9.12461 1.67251L0.414606 17.1905C0.138024 17.6775 -0.00496119 18.2289 0.000131431 18.7889C0.00522406 19.3489 0.158213 19.8976 0.443606 20.3795C0.73319 20.8766 1.14903 21.2884 1.649 21.5731C2.14897 21.8577 2.7153 22.0052 3.29061 22.0005H20.7106C21.2859 22.0052 21.8522 21.8577 22.3522 21.5731C22.8522 21.2884 23.268 20.8766 23.5576 20.3795C23.843 19.8976 23.996 19.3489 24.0011 18.7889C24.0062 18.2289 23.8632 17.6775 23.5866 17.1905L14.8766 1.67251ZM12.0006 18.0005C11.8028 18.0005 11.6095 17.9419 11.445 17.832C11.2806 17.7221 11.1524 17.5659 11.0767 17.3832C11.001 17.2005 10.9812 16.9994 11.0198 16.8054C11.0584 16.6114 11.1536 16.4333 11.2935 16.2934C11.4334 16.1535 11.6115 16.0583 11.8055 16.0197C11.9995 15.9811 12.2006 16.0009 12.3833 16.0766C12.566 16.1523 12.7222 16.2805 12.8321 16.4449C12.942 16.6094 13.0006 16.8027 13.0006 17.0005C13.0006 17.2657 12.8952 17.5201 12.7077 17.7076C12.5202 17.8952 12.2658 18.0005 12.0006 18.0005ZM13.0006 13.0005C13.0006 13.2657 12.8952 13.5201 12.7077 13.7076C12.5202 13.8952 12.2658 14.0005 12.0006 14.0005C11.7354 14.0005 11.481 13.8952 11.2935 13.7076C11.106 13.5201 11.0006 13.2657 11.0006 13.0005V7.00051C11.0006 6.73529 11.106 6.48094 11.2935 6.2934C11.481 6.10587 11.7354 6.00051 12.0006 6.00051C12.2658 6.00051 12.5202 6.10587 12.7077 6.2934C12.8952 6.48094 13.0006 6.73529 13.0006 7.00051V13.0005Z" fill="#D85B53"/>
</svg>
